<svg width="142" height="86" viewBox="0 0 142 86" fill="none" xmlns="http://www.w3.org/2000/svg">
<path d="M23.3441 47.707C24.664 45.9554 26.0805 45 28.3018 45C32.165 45 34 47.2611 34 51.242V59.9682H28.173V52.293C28.173 50.8599 27.7867 49.586 26.1127 49.586C24.3099 49.586 23.827 50.7325 23.827 52.5796V60H18V45.414H23.3441V47.707Z" fill="#339966"/>
<path d="M44.5 45C49.7635 45 53 47.9503 53 52.3602C53 57.5466 49.3058 60 44.5 60C39.7269 60 36 57.5155 36 52.6708C36.0327 47.7329 39.4654 45 44.5 45ZM41.9827 52.3602C41.9827 55.0311 43.0288 56.2112 44.5327 56.2112C46.1346 56.2112 47.0827 55.0621 47.0827 52.3602C47.0827 50.2795 46.1019 48.7888 44.5654 48.7888C42.5712 48.7888 41.9827 50.7764 41.9827 52.3602Z" fill="#339966"/>
<path d="M59.6342 45L62.1245 54.4529L64.5837 45H70L65.2062 60H58.9183L54 45H59.6342Z" fill="#339966"/>
<path d="M76.871 53.7578C76.871 55.4348 78.2258 56.5528 79.7742 56.5528C80.7097 56.5528 81.5484 56.1491 81.9677 55.3106H87.5484C86.5484 58.8199 82.8387 60 79.3871 60C74.6774 60 71 57.3913 71 52.6397C71 47.9814 74.6129 45 79.3548 45C84.8065 45 88 48.4472 88 53.7578H76.871ZM82.1613 50.9006C82.1613 49.5963 80.9677 48.4472 79.5806 48.4472C77.8387 48.4472 76.8387 49.3789 76.8387 50.9006H82.1613Z" fill="#339966"/>
<path d="M96 21H90V60H96V21Z" fill="#71B482"/>
<path d="M104 15H99V60H104V15Z" fill="#71B482"/>
<path d="M106.928 49.7516C106.928 46.7391 109.137 45 114.9 45C121.815 45 122.232 47.4845 122.232 50.8696V57.5155C122.232 58.323 122.264 58.7267 123 59.3168V59.5963H117.013L116.725 58.0745C115.092 59.5652 113.395 60 111.218 60C108.465 60 106 58.6646 106 55.7143C106 49.2857 116.405 52.205 116.405 49.5342C116.405 48.5093 115.124 48.3851 114.516 48.3851C113.716 48.3851 112.627 48.5404 112.467 49.7516H106.928ZM112.019 55.6211C112.019 56.3354 112.723 56.8012 113.876 56.8012C115.925 56.8012 116.437 55.4658 116.437 53.323C114.516 54.1925 112.019 53.7578 112.019 55.6211Z" fill="#339966"/>
<path d="M22.7243 66.7898V69.9429L26.0023 66.7898H27.0326L24.3477 69.3498L27.0326 72.9399H26.096L23.817 69.8493L22.7243 70.8795V72.9399H21.8502V70.8795L20.7575 69.8493L18.4786 72.9399H17.542L20.2268 69.3498L17.542 66.7898H18.5722L21.8502 69.9429V66.7898H22.7243Z" fill="#71B482"/>
<path d="M29.2492 66.7898V72.0346L33.1203 66.7898H34.3066V72.9399H33.4637V67.6951L29.5926 72.9399H28.4062V66.7898H29.2492Z" fill="#71B482"/>
<path d="M42.1114 66.7898V72.94H41.2373V67.5703H37.7719V70.0678C37.7719 72.4717 37.1476 73.0648 36.2422 73.0648C36.0549 73.0648 35.8364 73.0336 35.649 73.0024V72.3156C35.7115 72.3468 35.8676 72.3468 36.0549 72.3468C36.7417 72.3468 36.8978 71.5351 36.8978 69.818V66.7898H42.1114Z" fill="#71B482"/>
<path d="M47.2 66.6338C49.2917 66.6338 50.5717 67.9138 50.5717 69.8806C50.5717 71.8474 49.2917 73.1273 47.2 73.1273C45.1083 73.1273 43.8284 71.8474 43.8284 69.8806C43.8284 67.9138 45.1083 66.6338 47.2 66.6338ZM47.2 72.2844C48.761 72.2844 49.6663 71.3791 49.6663 69.8806C49.6663 68.3821 48.761 67.4455 47.2 67.4455C45.6391 67.4455 44.7337 68.3508 44.7337 69.8806C44.7337 71.4103 45.6391 72.2844 47.2 72.2844Z" fill="#71B482"/>
<path d="M53.1316 66.7899V72.0346L57.0028 66.7899H58.1891V72.94H57.3462V67.6952L53.475 72.94H52.2887V66.7899H53.1316ZM54.2867 65.1353C54.3179 65.5099 54.6301 65.6972 55.1921 65.6972C55.754 65.6972 56.0662 65.5099 56.0974 65.1353H56.6594C56.5657 65.9469 56.0974 66.3528 55.1921 66.3528C54.2867 66.3528 53.7872 65.9782 53.7248 65.1353H54.2867Z" fill="#71B482"/>
<path d="M64.5891 69.9429L68.1793 66.7898H69.3031L66.3686 69.3498L69.3031 72.9399H68.2729L65.7754 69.8493L64.5578 70.8795V72.9399H63.6837V66.7898H64.5578L64.5891 69.9429Z" fill="#71B482"/>
<path d="M73.5176 66.6338C75.6093 66.6338 76.8893 67.9138 76.8893 69.8806C76.8893 71.8474 75.6093 73.1273 73.5176 73.1273C71.426 73.1273 70.146 71.8474 70.146 69.8806C70.146 67.9138 71.426 66.6338 73.5176 66.6338ZM73.5176 72.2844C75.0786 72.2844 75.9839 71.3791 75.9839 69.8806C75.9839 68.3821 75.0786 67.4455 73.5176 67.4455C71.9567 67.4455 71.0513 68.3508 71.0513 69.8806C71.0513 71.4103 71.9567 72.2844 73.5176 72.2844Z" fill="#71B482"/>
<path d="M79.9175 66.7898L82.2902 72.1595L84.7253 66.7898H86.0365V72.9399H85.1936V67.539L82.7585 72.9399H81.8843L79.4805 67.539V72.9399H78.6376V66.7898H79.9175Z" fill="#71B482"/>
<path d="M93.5915 66.7898V72.9399H92.7173V67.5703H88.9711V72.9399H88.0969V66.7898H93.5915Z" fill="#71B482"/>
<path d="M101.396 66.7898V72.94H100.522V67.5703H97.0567V70.0678C97.0567 72.4717 96.4323 73.0648 95.527 73.0648C95.3397 73.0648 95.1212 73.0336 94.9338 73.0024V72.3156C94.9963 72.3468 95.1524 72.3468 95.3397 72.3468C96.0265 72.3468 96.1826 71.5351 96.1826 69.818V66.7898H101.396Z" fill="#71B482"/>
<path d="M103.457 66.7898H108.358V67.6015H104.331V69.4122H108.108V70.2239H104.331V72.1595H108.421V72.9712H103.457V66.7898Z" fill="#71B482"/>
<path d="M111.043 69.9429L114.633 66.7898H115.757L112.822 69.3498L115.757 72.9399H114.727L112.229 69.8493L111.012 70.8795V72.9399H110.138V66.7898H111.012V69.9429H111.043Z" fill="#71B482"/>
<path d="M119.971 73.1273C117.88 73.1273 116.6 71.8474 116.6 69.8806C116.6 67.9138 117.88 66.6338 119.971 66.6338C121.689 66.6338 122.906 67.6016 123.031 69.0377H122.126C121.97 68.0386 121.158 67.4455 119.971 67.4455C118.411 67.4455 117.505 68.3508 117.505 69.8806C117.505 71.4103 118.411 72.2844 119.971 72.2844C121.189 72.2844 122.032 71.5976 122.188 70.5674H123.093C122.937 72.0971 121.72 73.1273 119.971 73.1273Z" fill="#71B482"/>
</svg>
